<?xml version="1.0" encoding="utf-8"?>
<!-- Generator: Adobe Illustrator 24.2.1, SVG Export Plug-In . SVG Version: 6.00 Build 0)  -->
<svg version="1.1" id="Layer_1" xmlns="http://www.w3.org/2000/svg" xmlns:xlink="http://www.w3.org/1999/xlink" x="0px" y="0px"
	 viewBox="0 0 190 130" style="enable-background:new 0 0 190 130;" xml:space="preserve">
<style type="text/css">
	.st0{fill:#DBE1E0;}
</style>
<g id="layer101">
	<path class="st0" d="M10,125v-5H5H0V65V10h5h5V5V0h85h85v5v5h5h5v55v55h-5h-5v5v5H95H10V125z M180,65V10h-5h-5v5v5h-5h-5v-5v-5H95
		H30v5v5h-5h-5v-5v-5h-5h-5v55v55h85h85V65z"/>
	<path class="st0" d="M90,85v-5h-5h-5v-5v-5h-5h-5v-5v-5h-5h-5v-5v-5h-5h-5v-5v-5h-5h-5v-5v-5h-5h-5v-5v-5h5h5v5v5h5h5v5v5h5h5v5v5
		h5h5v5v5h5h5v5v5h5h5v5v5h5h5v-5v-5h5h5v-5v-5h5h5v-5v-5h5h5v-5v-5h5h5v-5v-5h5h5v-5v-5h5h5v5v5h-5h-5v5v5h-5h-5v5v5h-5h-5v5v5h-5
		h-5v5v5h-5h-5v5v5h-5h-5v5v5h-5h-5V85z"/>
</g>
</svg>
