<?xml version="1.0" encoding="utf-8"?>
<!-- Generator: Adobe Illustrator 24.2.1, SVG Export Plug-In . SVG Version: 6.00 Build 0)  -->
<svg version="1.1" id="Layer_1" xmlns="http://www.w3.org/2000/svg" xmlns:xlink="http://www.w3.org/1999/xlink" x="0px" y="0px"
	 viewBox="0 0 185 130" style="enable-background:new 0 0 185 130;" xml:space="preserve">
<style type="text/css">
	.st0{fill:#424740;}
</style>
<rect x="10" y="0" class="st0" width="165" height="5"/>
<rect x="127.5" y="62.5" transform="matrix(-1.836970e-16 1 -1 -1.836970e-16 247.5 -117.5)" class="st0" width="110" height="5"/>
<rect x="-52.5" y="62.5" transform="matrix(-1.836970e-16 1 -1 -1.836970e-16 67.5 62.5)" class="st0" width="110" height="5"/>
<rect x="10" y="125" class="st0" width="165" height="5"/>
<rect x="5" y="5" class="st0" width="5" height="5"/>
<rect x="5" y="120" class="st0" width="5" height="5"/>
<g>
	<rect x="20.3" y="10" class="st0" width="5" height="5"/>
	<rect x="30.2" y="20" class="st0" width="5" height="5"/>
	<rect x="25.3" y="15" class="st0" width="5" height="5"/>
	<rect x="15.3" y="5" class="st0" width="5" height="5"/>
	<rect x="35.2" y="25" class="st0" width="5" height="5"/>
	<rect x="45.1" y="35" class="st0" width="5" height="5"/>
	<rect x="40.2" y="30" class="st0" width="5" height="5"/>
	<rect x="50.1" y="40" class="st0" width="5" height="5"/>
	<rect x="60.1" y="50" class="st0" width="5" height="5"/>
	<rect x="55.1" y="45" class="st0" width="5" height="5"/>
	<rect x="65.1" y="55" class="st0" width="5" height="5"/>
	<rect x="75" y="65" class="st0" width="5" height="5"/>
	<rect x="70.1" y="60" class="st0" width="5" height="5"/>
	<rect x="80.1" y="70" class="st0" width="5" height="5"/>
	<rect x="90" y="80" class="st0" width="5" height="5"/>
	<rect x="85.1" y="75" class="st0" width="5" height="5"/>
	
		<rect x="159.7" y="10.1" transform="matrix(-1 -4.492907e-11 4.492907e-11 -1 324.4227 25.1443)" class="st0" width="5" height="5"/>
	
		<rect x="149.8" y="20.1" transform="matrix(-1 -4.492907e-11 4.492907e-11 -1 304.567 45.1443)" class="st0" width="5" height="5"/>
	
		<rect x="154.7" y="15.1" transform="matrix(-1 -4.474744e-11 4.474744e-11 -1 314.4227 35.1443)" class="st0" width="5" height="5"/>
	
		<rect x="164.7" y="5.1" transform="matrix(-1 -4.492907e-11 4.492907e-11 -1 334.4227 15.1443)" class="st0" width="5" height="5"/>
	
		<rect x="144.8" y="25.1" transform="matrix(-1 -4.474744e-11 4.474744e-11 -1 294.567 55.1443)" class="st0" width="5" height="5"/>
	
		<rect x="134.9" y="35.1" transform="matrix(-1 -4.511115e-11 4.511115e-11 -1 274.7113 75.1443)" class="st0" width="5" height="5"/>
	
		<rect x="139.8" y="30.1" transform="matrix(-1 -4.492907e-11 4.492907e-11 -1 284.567 65.1443)" class="st0" width="5" height="5"/>
	
		<rect x="129.9" y="40.1" transform="matrix(-1 -4.438329e-11 4.438329e-11 -1 264.7113 85.1443)" class="st0" width="5" height="5"/>
	
		<rect x="119.9" y="50.1" transform="matrix(-1 -4.511115e-11 4.511115e-11 -1 244.8557 105.1443)" class="st0" width="5" height="5"/>
	
		<rect x="124.9" y="45.1" transform="matrix(-1 -4.511115e-11 4.511115e-11 -1 254.7113 95.1443)" class="st0" width="5" height="5"/>
	
		<rect x="114.9" y="55" transform="matrix(-1 -4.511115e-11 4.511115e-11 -1 234.7835 115.0722)" class="st0" width="5" height="5"/>
	<rect x="105" y="65" transform="matrix(-1 -4.511115e-11 4.511115e-11 -1 214.9278 135.0722)" class="st0" width="5" height="5"/>
	
		<rect x="109.9" y="60" transform="matrix(-1 -4.511115e-11 4.511115e-11 -1 224.7835 125.0722)" class="st0" width="5" height="5"/>
	<rect x="99.9" y="70" transform="matrix(-1 -4.511115e-11 4.511115e-11 -1 204.8557 145)" class="st0" width="5" height="5"/>
	<rect x="94.9" y="75" transform="matrix(-1 -4.438329e-11 4.438329e-11 -1 194.8557 155)" class="st0" width="5" height="5"/>
</g>
<rect x="175" y="120" class="st0" width="5" height="5"/>
<rect x="175" y="5" class="st0" width="5" height="5"/>
</svg>
