<!DOCTYPE svg PUBLIC "-//W3C//DTD SVG 20010904//EN" "http://www.w3.org/TR/2001/REC-SVG-20010904/DTD/svg10.dtd">
<svg version="1.0" xmlns="http://www.w3.org/2000/svg" width="190px" height="130px" viewBox="0 0 1900 1300" preserveAspectRatio="xMidYMid meet">
<g id="layer101" fill="#424740" stroke="none">
 <path d="M100 1250 l0 -50 -50 0 -50 0 0 -550 0 -550 50 0 50 0 0 -50 0 -50 850 0 850 0 0 50 0 50 50 0 50 0 0 550 0 550 -50 0 -50 0 0 50 0 50 -850 0 -850 0 0 -50z m1700 -600 l0 -550 -50 0 -50 0 0 50 0 50 -50 0 -50 0 0 -50 0 -50 -650 0 -650 0 0 50 0 50 -50 0 -50 0 0 -50 0 -50 -50 0 -50 0 0 550 0 550 850 0 850 0 0 -550z"/>
 <path d="M900 850 l0 -50 -50 0 -50 0 0 -50 0 -50 -50 0 -50 0 0 -50 0 -50 -50 0 -50 0 0 -50 0 -50 -50 0 -50 0 0 -50 0 -50 -50 0 -50 0 0 -50 0 -50 -50 0 -50 0 0 -50 0 -50 50 0 50 0 0 50 0 50 50 0 50 0 0 50 0 50 50 0 50 0 0 50 0 50 50 0 50 0 0 50 0 50 50 0 50 0 0 50 0 50 50 0 50 0 0 50 0 50 50 0 50 0 0 -50 0 -50 50 0 50 0 0 -50 0 -50 50 0 50 0 0 -50 0 -50 50 0 50 0 0 -50 0 -50 50 0 50 0 0 -50 0 -50 50 0 50 0 0 -50 0 -50 50 0 50 0 0 50 0 50 -50 0 -50 0 0 50 0 50 -50 0 -50 0 0 50 0 50 -50 0 -50 0 0 50 0 50 -50 0 -50 0 0 50 0 50 -50 0 -50 0 0 50 0 50 -50 0 -50 0 0 50 0 50 -50 0 -50 0 0 -50z"/>
 </g>

</svg>