<?xml version="1.0" encoding="UTF-8"?>
<svg width="56.693px" height="56.693px" enable-background="new 0 0 56.693 56.693" version="1.1" viewBox="0 0 56.693 56.693" xml:space="preserve" xmlns="http://www.w3.org/2000/svg" xmlns:cc="http://creativecommons.org/ns#" xmlns:dc="http://purl.org/dc/elements/1.1/" xmlns:rdf="http://www.w3.org/1999/02/22-rdf-syntax-ns#"><metadata><rdf:RDF><cc:Work rdf:about=""><dc:format>image/svg+xml</dc:format><dc:type rdf:resource="http://purl.org/dc/dcmitype/StillImage"/><dc:title/></cc:Work></rdf:RDF></metadata><path d="m12.029 19.021v20.545h10.691s6.5254 0.2085 6.5254-6.0625c0 0 0.28534-5.1035-3.8477-5.1035-2e-6 0 3.1348-0.23416 3.1348-3.9102s-2.5645-5.4688-5.8125-5.4688h-6.1562zm21.502 1.209v2.5312h8.4766v-2.5312zm-16.793 2.4434h5.9824s1.4531-2.81e-4 1.4531 2.1367c0 2.136-0.85622 2.4473-1.8242 2.4473h-5.6113zm21.213 1.5742c-7.901 0-7.8926 7.8945-7.8926 7.8945s-0.54342 7.8535 7.8926 7.8535c0 0 7.0332 0.40216 7.0332-5.4648h-3.6172s0.11908 2.2109-3.2949 2.2109c0-1e-6 -3.6152 0.24178-3.6152-3.5742h10.646s1.1647-8.9199-7.1523-8.9199zm0.08008 3.0098c3.176 1e-6 3.1328 3.168 3.1328 3.168h-6.748s0.44123-3.168 3.6152-3.168zm-21.293 3.168h5.9824s2.1641-0.03069 2.1641 2.8203c0 2.402-1.6148 2.6519-2.4668 2.6719-0.158 2e-3 -0.29281 0-0.38281 0h-5.2969z" fill="#ebeded"/></svg>
