<?xml version="1.0" encoding="UTF-8"?>
<svg width="43" height="43" version="1.1" viewBox="0 0 43 43" xmlns="http://www.w3.org/2000/svg" xmlns:cc="http://creativecommons.org/ns#" xmlns:dc="http://purl.org/dc/elements/1.1/" xmlns:rdf="http://www.w3.org/1999/02/22-rdf-syntax-ns#">
 <metadata>
  <rdf:RDF>
   <cc:Work rdf:about="">
    <dc:format>image/svg+xml</dc:format>
    <dc:type rdf:resource="http://purl.org/dc/dcmitype/StillImage"/>
    <dc:title/>
   </cc:Work>
  </rdf:RDF>
 </metadata>
 <path d="m6 10v23h32v-23zm1 3h30v19h-30zm2 2v1h1v-1zm1 1v1h1v-1zm0 1h-1v1h1zm-1 3v1h7v-1zm8 0v1h11v-1zm12 0v1h6v-1zm-20 3v1h4v-1zm5 0v1h9v-1zm10 0v1h5v-1zm-15 3v1h15v-1zm16 0v1h7v-1zm-16 3v1h5v-1zm6 0v1h8v-1z" fill="#424740" stop-color="#000000" stroke-width="1.4249"/>
</svg>
