<?xml version="1.0" encoding="UTF-8"?>
<svg width="43" height="43" version="1.1" viewBox="0 0 43 43" xmlns="http://www.w3.org/2000/svg" xmlns:cc="http://creativecommons.org/ns#" xmlns:dc="http://purl.org/dc/elements/1.1/" xmlns:rdf="http://www.w3.org/1999/02/22-rdf-syntax-ns#">
 <metadata>
  <rdf:RDF>
   <cc:Work rdf:about="">
    <dc:format>image/svg+xml</dc:format>
    <dc:type rdf:resource="http://purl.org/dc/dcmitype/StillImage"/>
    <dc:title/>
   </cc:Work>
  </rdf:RDF>
 </metadata>
 <path d="m3 10v23h14v-23zm1 1h12v21h-12zm15 4v2h18v-2zm0 4v1h16v-1zm17 0v1h4v-1zm-17 3v1h9v-1zm10 0v1h5v-1zm-10 3v1h6v-1zm7 0v1h8v-1zm9 0v1h2v-1zm-16 3v1h3v-1zm4 0v1h9v-1z" fill="#424740" stop-color="#000000" stroke-width="1.1709"/>
</svg>
