<?xml version="1.0" encoding="UTF-8" standalone="no"?>
<svg
   xmlns:dc="http://purl.org/dc/elements/1.1/"
   xmlns:cc="http://creativecommons.org/ns#"
   xmlns:rdf="http://www.w3.org/1999/02/22-rdf-syntax-ns#"
   xmlns:svg="http://www.w3.org/2000/svg"
   xmlns="http://www.w3.org/2000/svg"
   xmlns:sodipodi="http://sodipodi.sourceforge.net/DTD/sodipodi-0.dtd"
   xmlns:inkscape="http://www.inkscape.org/namespaces/inkscape"
   inkscape:version="1.0 (4035a4fb49, 2020-05-01)"
   sodipodi:docname="emailLogo.svg"
   id="svg10"
   xml:space="preserve"
   viewBox="0 0 185 130"
   version="1.1"
   enable-background="new 0 0 185 130"
   height="32.5"
   width="46.25"><defs
   id="defs14" /><sodipodi:namedview
   inkscape:current-layer="svg10"
   inkscape:window-maximized="1"
   inkscape:window-y="-8"
   inkscape:window-x="-8"
   inkscape:cy="16.25"
   inkscape:cx="20.600087"
   inkscape:zoom="24.951351"
   showgrid="false"
   id="namedview12"
   inkscape:window-height="1017"
   inkscape:window-width="2560"
   inkscape:pageshadow="2"
   inkscape:pageopacity="0"
   guidetolerance="10"
   gridtolerance="10"
   objecttolerance="10"
   borderopacity="1"
   bordercolor="#666666"
   pagecolor="#ffffff" /><metadata
   id="metadata2"><rdf:RDF><cc:Work
       rdf:about=""><dc:format>image/svg+xml</dc:format><dc:type
         rdf:resource="http://purl.org/dc/dcmitype/StillImage" /><dc:title /></cc:Work></rdf:RDF></metadata>
<style
   id="style4"
   type="text/css">
	.st0{fill:#424740;}
</style><g
   style="fill:#ebeded;fill-opacity:1"
   id="g8"
   fill="#00ff00">
<path
   style="fill:#ebeded;fill-opacity:1"
   id="path6"
   fill="#00ff00"
   d="m 10,0 v 5 h 5.3008 v 5 h 5 V 5 h 154.7 V 0 Z m 165,5 v 5 h 5 V 5 Z m 5,5 v 110 h 5 V 10 Z m 0,110 h -5 v 5 h 5 z m -5,5 H 10 v 5 h 165 z m -165,0 v -5 H 5 v 5 z M 5,120 V 10 H 0 V 120 Z M 5,10 h 5 V 5 H 5 Z m 15.301,0 v 5 h 5 v -5 z m 5,5 v 5 h 4.8984 v 5 h 5 V 20 H 30.301 v -5 z m 9.8984,10 v 5 h 5 v -5 z m 5,5 v 5 h 4.9004 v 5 h 5 v -5 h -4.9004 v -5 z m 9.9004,10 v 5 h 5 v -5 z m 5,5 v 5 h 5 v -5 z m 5,5 v 5 h 5 v -5 z m 5,5 v 5 h 5 v -5 z m 5,5 v 5 h 4.9004 v 5 h 5 v -5 h -4.9004 v -5 z m 94.621,-54.955 v 5 h 5 v -5 z m 0,5 h -5 v 5 h 5 z m -5,5 h -5 v 5 h -4.9609 v 5 h 5 v -5 h 4.9609 z m -9.9609,10 h -5 v 5 h 5 z m -5,5 h -5 v 5 h -4.9395 v 5 h 5 v -5 h 4.9395 z m -9.9395,10 h -5 v 5 h 5 z m -5,5 h -5 v 5 h -4.8594 v 5 h 5 v -5 h 4.8594 z m -14.939,10.027 v 5 h 5 v -5 z m 0,5 h -5 v 5 h -4.9609 v 4.9277 h -4.959 v 5 h 5 V 70.072 h 4.959 v -5 h 4.9609 z m -34.781,9.9277 v 5 h 5 v -5 z m 5,5 v 5 h 4.9004 v 5 h 5 v -5 h 4.9551 v -5 h -5 v 5 h -4.8555 v -5 z" />






	
	
	
	
	
	
	
	
	
	
	
	
	
	
	
	
	
		
	
		
	
		
	
		
	
		
	
		
	
		
	
		
	
		
	
		
	
		
	
	
		
	
	



</g></svg>
