<?xml version="1.0" encoding="UTF-8"?>
<svg enable-background="new 0 0 382 382" version="1.1" viewBox="0 0 382 382" xml:space="preserve" xmlns="http://www.w3.org/2000/svg" xmlns:cc="http://creativecommons.org/ns#" xmlns:dc="http://purl.org/dc/elements/1.1/" xmlns:rdf="http://www.w3.org/1999/02/22-rdf-syntax-ns#"><metadata><rdf:RDF><cc:Work rdf:about=""><dc:format>image/svg+xml</dc:format><dc:type rdf:resource="http://purl.org/dc/dcmitype/StillImage"/><dc:title/></cc:Work></rdf:RDF></metadata>
<path d="m118.2 329.84c0 5.554-4.502 10.056-10.056 10.056h-42.806c-5.554 0-10.056-4.502-10.056-10.056v-179.44c0-5.554 4.502-10.056 10.056-10.056h42.806c5.554 0 10.056 4.502 10.056 10.056zm-31.459-206.41c-22.459 0-40.666-18.207-40.666-40.666s18.207-40.666 40.666-40.666 40.666 18.207 40.666 40.666-18.206 40.666-40.666 40.666zm255.16 207.22c0 5.106-4.14 9.246-9.246 9.246h-45.934c-5.106 0-9.246-4.14-9.246-9.246v-84.168c0-12.556 3.683-55.021-32.813-55.021-28.309 0-34.051 29.066-35.204 42.11v97.079c0 5.106-4.139 9.246-9.246 9.246h-44.426c-5.106 0-9.246-4.14-9.246-9.246v-181.06c0-5.106 4.14-9.246 9.246-9.246h44.426c5.106 0 9.246 4.14 9.246 9.246v15.655c10.497-15.753 26.097-27.912 59.312-27.912 73.552 0 73.131 68.716 73.131 106.47v86.846z" fill="#ebeded"/>















</svg>
