<?xml version="1.0" encoding="UTF-8"?>
<svg width="43" height="43" version="1.1" viewBox="0 0 43 43" xmlns="http://www.w3.org/2000/svg" xmlns:cc="http://creativecommons.org/ns#" xmlns:dc="http://purl.org/dc/elements/1.1/" xmlns:rdf="http://www.w3.org/1999/02/22-rdf-syntax-ns#">
 <metadata>
  <rdf:RDF>
   <cc:Work rdf:about="">
    <dc:format>image/svg+xml</dc:format>
    <dc:type rdf:resource="http://purl.org/dc/dcmitype/StillImage"/>
    <dc:title/>
   </cc:Work>
  </rdf:RDF>
 </metadata>
 <path d="m12 14v1h4v-1zm4 1v1h2v-1zm2 1v1h1v-1zm1 1v1h1v-1zm1 1v1h1v-1zm-8-3h-2v1h2zm-2 1h-1v1h1zm-1 1h-1v1h1zm-1 1h-1v2h1zm-1 2h-1v4h1zm0 4v2h1v-2zm1 2v1h1v-1zm1 1v1h1v-1zm1 1v1h2v-1zm2 1v1h4v-1zm4 0h2v-1h-2zm2-1h1v-1h-1zm1-1h1v-1h-1zm1-1h1v-2h-1zm1-2h1v-2h-1zm1-2h1v-2h-1zm1-2h1v-2h-1zm1-2h1v-1h-1zm1-1h1v-1h-1zm1-1h2v-1h-2zm2-1h4v-1h-4zm4 0v1h2v-1zm2 1v1h1v-1zm1 1v1h1v-1zm1 1v2h1v-2zm1 2v4h1v-4zm0 4h-1v2h1zm-1 2h-1v1h1zm-1 1h-1v1h1zm-1 1h-2v1h2zm-2 1h-4v1h4zm-4 0v-1h-2v1zm-2-1v-1h-1v1zm-1-1v-1h-1v1zm-1-1v-1h-1v1z" fill="#424740" stop-color="#000000" stroke-width="1.0012"/>
</svg>
