<?xml version="1.0" standalone="no"?>
<!DOCTYPE svg PUBLIC "-//W3C//DTD SVG 20010904//EN"
 "http://www.w3.org/TR/2001/REC-SVG-20010904/DTD/svg10.dtd">
<svg version="1.0" xmlns="http://www.w3.org/2000/svg"
 width="700.000000pt" height="700.000000pt" viewBox="0 0 700.000000 700.000000"
 preserveAspectRatio="xMidYMid meet">
<metadata>
Created by potrace 1.11, written by Peter Selinger 2001-2013
</metadata>
<g transform="translate(0.000000,700.000000) scale(0.100000,-0.100000)"
fill="#000000" stroke="none">
<path d="M0 3500 l0 -3500 3500 0 3500 0 0 3500 0 3500 -3500 0 -3500 0 0
-3500z m5440 2075 l0 -905 -255 0 -255 0 0 645 0 645 -910 0 -910 0 0 -385 0
-385 -260 0 -260 0 0 385 0 385 -775 0 -775 0 0 -645 0 -645 -260 0 -260 0 0
905 0 905 2460 0 2460 0 0 -905z m1040 -2075 l0 -2980 -1425 0 -1425 0 0 1295
0 1295 1165 0 1165 0 0 1685 0 1685 260 0 260 0 0 -2980z m-1040 390 l0 -260
-1165 0 -1165 0 0 -1555 0 -1555 -260 0 -260 0 0 1555 0 1555 -1035 0 -1035 0
0 260 0 260 2460 0 2460 0 0 -260z m-3370 -1040 l0 -260 -775 0 -775 0 0 260
0 260 775 0 775 0 0 -260z m-510 -1035 l0 -255 -520 0 -520 0 0 255 0 255 520
0 520 0 0 -255z m510 -1035 l0 -260 -775 0 -775 0 0 260 0 260 775 0 775 0 0
-260z"/>
<path d="M4150 1815 l0 -775 905 0 905 0 0 775 0 775 -905 0 -905 0 0 -775z"/>
</g>
</svg>
